<svg xmlns="http://www.w3.org/2000/svg" version="1.1" xmlns:xlink="http://www.w3.org/1999/xlink" xmlns:svgjs="http://svgjs.dev/svgjs" width="1500" height="1500" viewBox="0 0 1500 1500"><rect width="1500" height="1500" fill="#000000"></rect><g transform="matrix(0.6666666666666666,0,0,0.6666666666666666,249.39393939393938,579.1799185916535)"><svg viewBox="0 0 396 135" data-background-color="#000000" preserveAspectRatio="xMidYMid meet" height="511" width="1500" xmlns="http://www.w3.org/2000/svg" xmlns:xlink="http://www.w3.org/1999/xlink"><g id="tight-bounds" transform="matrix(1,0,0,1,0.2400000000000091,0.19288940350327266)"><svg viewBox="0 0 395.52 134.61400177503455" height="134.61400177503455" width="395.52"><g><svg viewBox="0 0 667.582506540382 227.20962965313768" height="134.61400177503455" width="395.52"><g transform="matrix(1,0,0,1,272.06250654038206,66.10647013328744)"><svg viewBox="0 0 395.52 94.99668938656279" height="94.99668938656279" width="395.52"><g id="textblocktransform"><svg viewBox="0 0 395.52 94.99668938656279" height="94.99668938656279" width="395.52" id="textblock"><g><svg viewBox="0 0 395.52 94.99668938656279" height="94.99668938656279" width="395.52"><g transform="matrix(1,0,0,1,0,0)"><svg width="395.52" viewBox="3.44 -41.19 226.16 54.199999999999996" height="94.99668938656279" data-palette-color="#ffffff"><g class="wordmark-text-0" data-fill-palette-color="primary" id="text-0"><path d="M47.07-16.46L47.07-16.46Q47.07-13.55 46.39-10.4 45.7-7.25 44.47-4.26 43.24-1.27 41.5 1.39 39.77 4.05 37.65 6.01L37.65 6.01 34.55 4.32Q35.25 3.05 35.84 1.46 36.43-0.12 36.91-1.88 37.4-3.64 37.77-5.49 38.13-7.35 38.39-9.19 38.65-11.04 38.77-12.77 38.89-14.5 38.89-16.02L38.89-16.02Q38.89-16.87 38.84-17.87 38.79-18.87 38.64-19.87 38.48-20.87 38.16-21.79 37.84-22.71 37.29-23.43 36.74-24.15 35.93-24.57 35.11-25 33.96-25L33.96-25Q32.84-25 32.04-24.4 31.25-23.8 30.69-22.85 30.13-21.9 29.8-20.7 29.47-19.51 29.3-18.3 29.13-17.09 29.06-15.99 29-14.89 29-14.14L29-14.14 29 0 20.78 0 20.78-13.13Q20.78-13.99 20.8-15.2 20.83-16.41 20.74-17.72 20.65-19.04 20.42-20.35 20.19-21.66 19.69-22.68 19.19-23.71 18.33-24.35 17.48-25 16.19-25L16.19-25Q15.09-25 14.34-24.39 13.6-23.78 13.1-22.81 12.6-21.85 12.32-20.64 12.04-19.43 11.9-18.23 11.77-17.02 11.74-15.93 11.72-14.84 11.72-14.14L11.72-14.14 11.72 0 3.44 0 3.44-28.2 6.62-28.2 9.64-21.63Q10.67-25.05 12.88-26.97 15.09-28.88 18.75-28.88L18.75-28.88Q22.05-28.88 24.22-27.51 26.39-26.15 27.64-23.07L27.64-23.07Q28.34-24.41 29.21-25.49 30.08-26.56 31.14-27.32 32.2-28.08 33.5-28.48 34.79-28.88 36.35-28.88L36.35-28.88Q39.23-28.88 41.27-27.94 43.31-27 44.6-25.34 45.9-23.68 46.48-21.4 47.07-19.12 47.07-16.46ZM80.95-28.2L80.95 0 72.7 0 72.7-3.37Q71.24-1.37 69.17-0.4 67.11 0.56 64.65 0.56L64.65 0.56Q61.42 0.56 58.88-0.59 56.35-1.73 54.59-3.72 52.83-5.71 51.9-8.4 50.97-11.08 50.97-14.16L50.97-14.16Q50.97-17.24 51.9-19.92 52.83-22.61 54.59-24.6 56.35-26.59 58.88-27.73 61.42-28.88 64.65-28.88L64.65-28.88Q66.28-28.88 67.76-28.39 69.24-27.91 70.47-27.01 71.7-26.12 72.64-24.87 73.58-23.61 74.12-22.07L74.12-22.07 77.78-28.2 80.95-28.2ZM72.65-14.16L72.65-14.16Q72.65-15.26 72.54-16.48 72.43-17.7 72.17-18.9 71.9-20.09 71.42-21.18 70.94-22.27 70.2-23.11 69.46-23.95 68.41-24.44 67.36-24.93 65.96-24.93L65.96-24.93Q64.57-24.93 63.55-24.43 62.52-23.93 61.79-23.08 61.06-22.24 60.58-21.14 60.1-20.04 59.84-18.85 59.57-17.65 59.46-16.44 59.35-15.23 59.35-14.16L59.35-14.16Q59.35-13.09 59.46-11.87 59.57-10.64 59.84-9.45 60.1-8.25 60.58-7.15 61.06-6.05 61.79-5.21 62.52-4.37 63.55-3.87 64.57-3.37 65.96-3.37L65.96-3.37Q67.23-3.37 68.22-3.89 69.21-4.42 69.96-5.3 70.7-6.18 71.21-7.3 71.73-8.42 72.04-9.62 72.36-10.82 72.51-12 72.65-13.18 72.65-14.16ZM116.67-16.16L116.67-16.16Q116.67-13.31 115.97-10.21 115.28-7.1 114.03-4.13 112.79-1.15 111.05 1.48 109.32 4.1 107.25 6.01L107.25 6.01 104.15 4.32Q104.8 3.1 105.39 1.59 105.98 0.07 106.45-1.62 106.93-3.32 107.31-5.13 107.69-6.93 107.94-8.7 108.2-10.47 108.33-12.15 108.47-13.82 108.47-15.26L108.47-15.26Q108.47-16.21 108.39-17.3 108.32-18.38 108.09-19.47 107.86-20.56 107.47-21.56 107.08-22.56 106.43-23.32 105.78-24.07 104.87-24.54 103.95-25 102.7-25L102.7-25Q101.48-25 100.53-24.45 99.58-23.9 98.85-23.01 98.12-22.12 97.59-20.97 97.07-19.82 96.74-18.62 96.41-17.41 96.26-16.24 96.11-15.06 96.11-14.14L96.11-14.14 96.11 0 87.84 0 87.84-28.2 91.01-28.2 94.79-21.63Q95.48-23.27 96.5-24.61 97.53-25.95 98.82-26.9 100.12-27.86 101.69-28.37 103.27-28.88 105.1-28.88L105.1-28.88Q108.03-28.88 110.2-27.93 112.37-26.98 113.81-25.28 115.25-23.58 115.96-21.25 116.67-18.92 116.67-16.16ZM150.51-28.2L150.51-3.39Q150.51-0.02 149.5 2.95 148.5 5.93 146.6 8.17 144.69 10.4 141.92 11.71 139.15 13.01 135.61 13.01L135.61 13.01Q133.66 13.01 131.67 12.57 129.68 12.13 127.91 11.22 126.14 10.3 124.74 8.9 123.33 7.5 122.53 5.59L122.53 5.59 126.09 4.25Q126.56 5.44 127.3 6.45 128.04 7.45 129.02 8.17 130 8.89 131.17 9.29 132.34 9.69 133.64 9.69L133.64 9.69Q136.08 9.69 137.72 8.69 139.37 7.69 140.37 6.08 141.37 4.47 141.81 2.43 142.25 0.39 142.25-1.71L142.25-1.71 142.25-3.37Q140.79-1.37 138.73-0.4 136.66 0.56 134.2 0.56L134.2 0.56Q130.97 0.56 128.43-0.59 125.9-1.73 124.14-3.72 122.38-5.71 121.45-8.4 120.52-11.08 120.52-14.16L120.52-14.16Q120.52-17.24 121.45-19.92 122.38-22.61 124.14-24.6 125.9-26.59 128.43-27.73 130.97-28.88 134.2-28.88L134.2-28.88Q135.83-28.88 137.31-28.39 138.79-27.91 140.02-27.01 141.25-26.12 142.19-24.87 143.13-23.61 143.67-22.07L143.67-22.07 147.33-28.2 150.51-28.2ZM142.2-14.16L142.2-14.16Q142.2-15.26 142.09-16.48 141.98-17.7 141.72-18.9 141.45-20.09 140.97-21.18 140.5-22.27 139.75-23.11 139.01-23.95 137.96-24.44 136.91-24.93 135.51-24.93L135.51-24.93Q134.12-24.93 133.1-24.43 132.07-23.93 131.34-23.08 130.61-22.24 130.13-21.14 129.66-20.04 129.39-18.85 129.12-17.65 129.01-16.44 128.9-15.23 128.9-14.16L128.9-14.16Q128.9-13.09 129.01-11.87 129.12-10.64 129.39-9.45 129.66-8.25 130.13-7.15 130.61-6.05 131.34-5.21 132.07-4.37 133.1-3.87 134.12-3.37 135.51-3.37L135.51-3.37Q136.78-3.37 137.77-3.89 138.76-4.42 139.51-5.3 140.25-6.18 140.76-7.3 141.28-8.42 141.59-9.62 141.91-10.82 142.06-12 142.2-13.18 142.2-14.16ZM165.64-32.62L165.64 0 157.39 0 157.39-41.19 160.56-41.19 165.64-32.62ZM192.05-28.2L197.77-28.2 187.51-3.39Q185.75 0.85 183.59 5.02 181.43 9.18 178.92 13.01L178.92 13.01 175.7 11.06Q176.31 9.96 177.14 8.52 177.97 7.08 178.77 5.54 179.58 4 180.26 2.5 180.94 1 181.31-0.24L181.31-0.24 168.98-28.2 177.23-28.2 185.61-9.13 192.05-28.2ZM229.6-28.2L229.6 0 221.35 0 221.35-3.37Q219.88-1.37 217.82-0.4 215.76 0.56 213.29 0.56L213.29 0.56Q210.07 0.56 207.53-0.59 204.99-1.73 203.23-3.72 201.47-5.71 200.55-8.4 199.62-11.08 199.62-14.16L199.62-14.16Q199.62-17.24 200.55-19.92 201.47-22.61 203.23-24.6 204.99-26.59 207.53-27.73 210.07-28.88 213.29-28.88L213.29-28.88Q214.93-28.88 216.4-28.39 217.88-27.91 219.11-27.01 220.35-26.12 221.29-24.87 222.23-23.61 222.76-22.07L222.76-22.07 226.43-28.2 229.6-28.2ZM221.3-14.16L221.3-14.16Q221.3-15.26 221.19-16.48 221.08-17.7 220.81-18.9 220.54-20.09 220.07-21.18 219.59-22.27 218.84-23.11 218.1-23.95 217.05-24.44 216-24.93 214.61-24.93L214.61-24.93Q213.22-24.93 212.19-24.43 211.17-23.93 210.43-23.08 209.7-22.24 209.23-21.14 208.75-20.04 208.48-18.85 208.21-17.65 208.1-16.44 207.99-15.23 207.99-14.16L207.99-14.16Q207.99-13.09 208.1-11.87 208.21-10.64 208.48-9.45 208.75-8.25 209.23-7.15 209.7-6.05 210.43-5.21 211.17-4.37 212.19-3.87 213.22-3.37 214.61-3.37L214.61-3.37Q215.88-3.37 216.87-3.89 217.86-4.42 218.6-5.3 219.35-6.18 219.86-7.3 220.37-8.42 220.69-9.62 221.01-10.82 221.15-12 221.3-13.18 221.3-14.16Z" fill="#ffffff" data-fill-palette-color="primary"></path></g></svg></g></svg></g></svg></g></svg></g><g><svg viewBox="0 0 227.20962965313768 227.20962965313768" height="227.20962965313768" width="227.20962965313768"><g><svg></svg></g><g id="icon-0"><svg viewBox="0 0 227.20962965313768 227.20962965313768" height="227.20962965313768" width="227.20962965313768"><g><path d="M0 113.605c0-62.742 50.863-113.605 113.605-113.605 62.742 0 113.605 50.863 113.605 113.605 0 62.742-50.863 113.605-113.605 113.605-62.742 0-113.605-50.863-113.605-113.605zM113.605 218.643c58.011 0 105.038-47.027 105.038-105.038 0-58.011-47.027-105.038-105.038-105.038-58.011 0-105.038 47.027-105.038 105.038 0 58.011 47.027 105.038 105.038 105.038z" data-fill-palette-color="accent" fill="#ffffff" stroke="transparent"></path></g><g transform="matrix(1,0,0,1,66.72331860658404,47.97374621670741)"><svg viewBox="0 0 93.7629924399696 131.26213721972286" height="131.26213721972286" width="93.7629924399696"><g><svg xmlns="http://www.w3.org/2000/svg" xmlns:xlink="http://www.w3.org/1999/xlink" version="1.0" x="0" y="0" viewBox="22.2 11.02359531326266 55.7 77.97640468673734" enable-background="new 0 0 100 100" xml:space="preserve" height="131.26213721972286" width="93.7629924399696" class="icon-dxe-0" data-fill-palette-color="accent" id="dxe-0"><path d="M30 66.9C29.1 66.9 28.4 66.2 28.4 65.3V48C28.4 47.1 29.1 46.4 30 46.4S31.6 47.1 31.6 48V65.3C31.6 66.2 30.9 66.9 30 66.9" fill="#ffffff" data-fill-palette-color="accent"></path><path d="M36.3 66.4C35.4 66.4 34.7 65.7 34.7 64.8V47.4C34.7 46.5 35.4 45.8 36.3 45.8S37.9 46.5 37.9 47.4V64.7C37.9 65.6 37.2 66.4 36.3 66.4" fill="#ffffff" data-fill-palette-color="accent"></path><path d="M42.4 66.3C41.5 66.3 40.8 65.6 40.8 64.7V57.8C40.8 56.9 41.5 56.2 42.4 56.2S44 56.9 44 57.8V64.7C44 65.6 43.3 66.3 42.4 66.3" fill="#ffffff" data-fill-palette-color="accent"></path><path d="M23.8 77.7C22.9 77.7 22.2 77 22.2 76.1V63.2C22.2 62.3 22.9 61.6 23.8 61.6S25.4 62.3 25.4 63.2V76.1C25.4 77 24.7 77.7 23.8 77.7" fill="#ffffff" data-fill-palette-color="accent"></path><path d="M48.7 66.3C47.8 66.3 47.1 65.6 47.1 64.7V61.1C47.1 60.2 47.8 59.5 48.7 59.5S50.3 60.2 50.3 61.1V64.7C50.3 65.6 49.6 66.3 48.7 66.3" fill="#ffffff" data-fill-palette-color="accent"></path><path d="M55 77.7C54.1 77.7 53.4 77 53.4 76.1V62.4C53.4 61.5 54.1 60.8 55 60.8S56.6 61.5 56.6 62.4V76.1C56.6 77 55.9 77.7 55 77.7" fill="#ffffff" data-fill-palette-color="accent"></path><path d="M48.5 88.8C47.9 88.8 47.3 88.5 47.1 87.9 46.7 87.1 47 86.1 47.8 85.7 51.2 84 53.4 80.2 53.4 76.2 53.4 75.3 54.1 74.6 55 74.6S56.6 75.3 56.6 76.2C56.6 81.4 53.7 86.3 49.2 88.6 49 88.7 48.7 88.8 48.5 88.8" fill="#ffffff" data-fill-palette-color="accent"></path><path d="M30.3 89C30.1 89 29.8 88.9 29.6 88.8 25.1 86.5 22.2 81.7 22.2 76.4 22.2 75.5 22.9 74.8 23.8 74.8S25.4 75.5 25.4 76.4C25.4 80.4 27.6 84.2 31 85.9 31.8 86.3 32.1 87.3 31.7 88.1 31.5 88.6 30.9 89 30.3 89" fill="#ffffff" data-fill-palette-color="accent"></path><path d="M30 63.9C29.1 63.9 28.4 63.2 28.4 62.3 28.4 61.5 27.7 60.8 26.9 60.8S25.4 61.5 25.4 62.3C25.4 63.2 24.7 63.9 23.8 63.9S22.2 63.2 22.2 62.3C22.2 59.7 24.3 57.6 26.9 57.6S31.6 59.7 31.6 62.3C31.6 63.2 30.9 63.9 30 63.9" fill="#ffffff" data-fill-palette-color="accent"></path><path d="M36.2 48.9C35.3 48.9 34.6 48.2 34.6 47.3 34.6 46.5 33.9 45.8 33.1 45.8S31.6 46.5 31.6 47.3C31.6 48.2 30.9 48.9 30 48.9S28.4 48.2 28.4 47.3C28.4 44.7 30.5 42.6 33.1 42.6S37.8 44.7 37.8 47.3C37.9 48.2 37.1 48.9 36.2 48.9" fill="#ffffff" data-fill-palette-color="accent"></path><path d="M48.7 62C47.8 62 47.1 61.3 47.1 60.4 47.1 59.6 46.4 58.9 45.6 58.9S44.1 59.6 44.1 60.4C44.1 61.3 43.4 62 42.5 62S40.9 61.3 40.9 60.4C40.9 57.8 43 55.7 45.6 55.7S50.3 57.8 50.3 60.4C50.4 61.3 49.6 62 48.7 62" fill="#ffffff" data-fill-palette-color="accent"></path><path d="M55 63.3C54.1 63.3 53.4 62.6 53.4 61.7 53.4 60.9 52.7 60.2 51.9 60.2S50.4 60.9 50.4 61.7C50.4 62.6 49.7 63.3 48.8 63.3S47.2 62.6 47.2 61.7C47.2 59.1 49.3 57 51.9 57S56.6 59.1 56.6 61.7C56.6 62.6 55.9 63.3 55 63.3" fill="#ffffff" data-fill-palette-color="accent"></path><path d="M42.5 59.1C41.6 59.1 40.9 58.4 40.9 57.5 40.9 56.7 40.2 56 39.4 56S37.9 56.7 37.9 57.5C37.9 58.4 37.2 59.1 36.3 59.1S34.7 58.4 34.7 57.5C34.7 54.9 36.8 52.8 39.4 52.8S44.1 54.9 44.1 57.5C44.1 58.4 43.3 59.1 42.5 59.1" fill="#ffffff" data-fill-palette-color="accent"></path><path d="M70 53.6C69.1 53.6 68.4 52.9 68.4 52V34.7C68.4 33.8 69.1 33.1 70 33.1S71.6 33.8 71.6 34.7V52C71.6 52.9 70.9 53.6 70 53.6" fill="#ffffff" data-fill-palette-color="accent"></path><path d="M63.7 54.2C62.8 54.2 62.1 53.5 62.1 52.6V35.3C62.1 34.4 62.8 33.7 63.7 33.7S65.3 34.4 65.3 35.3V52.6C65.4 53.4 64.6 54.2 63.7 54.2" fill="#ffffff" data-fill-palette-color="accent"></path><path d="M57.6 43.8C56.7 43.8 56 43.1 56 42.2V35.3C56 34.4 56.7 33.7 57.6 33.7S59.2 34.4 59.2 35.3V42.2C59.2 43.1 58.5 43.8 57.6 43.8" fill="#ffffff" data-fill-palette-color="accent"></path><path d="M76.2 38.4C75.3 38.4 74.6 37.7 74.6 36.8V23.9C74.6 23 75.3 22.3 76.2 22.3S77.8 23 77.8 23.9V36.8C77.9 37.7 77.1 38.4 76.2 38.4" fill="#ffffff" data-fill-palette-color="accent"></path><path d="M51.3 40.4C50.4 40.4 49.7 39.7 49.7 38.8V35.2C49.7 34.3 50.4 33.6 51.3 33.6S52.9 34.3 52.9 35.2V38.8C52.9 39.7 52.2 40.4 51.3 40.4" fill="#ffffff" data-fill-palette-color="accent"></path><path d="M45 39.3C44.1 39.3 43.4 38.6 43.4 37.7V23.9C43.4 23 44.1 22.3 45 22.3S46.6 23 46.6 23.9V37.6C46.6 38.5 45.9 39.3 45 39.3" fill="#ffffff" data-fill-palette-color="accent"></path><path d="M45 25.4C44.1 25.4 43.4 24.7 43.4 23.8 43.4 18.6 46.3 13.7 50.8 11.4 51.6 11 52.6 11.3 53 12.1S53.1 13.9 52.3 14.3C48.9 16 46.7 19.8 46.7 23.8 46.6 24.6 45.9 25.4 45 25.4" fill="#ffffff" data-fill-palette-color="accent"></path><path d="M76.2 25.2C75.3 25.2 74.6 24.5 74.6 23.6 74.6 19.6 72.4 15.8 69 14.1 68.2 13.7 67.9 12.7 68.3 11.9S69.7 10.8 70.5 11.2C75 13.5 77.9 18.3 77.9 23.6 77.8 24.5 77.1 25.2 76.2 25.2" fill="#ffffff" data-fill-palette-color="accent"></path><path d="M73.1 42.4C70.5 42.4 68.4 40.3 68.4 37.7 68.4 36.8 69.1 36.1 70 36.1S71.6 36.8 71.6 37.7C71.6 38.5 72.3 39.2 73.1 39.2S74.6 38.5 74.6 37.7C74.6 36.8 75.3 36.1 76.2 36.1S77.8 36.8 77.8 37.7C77.9 40.3 75.7 42.4 73.1 42.4" fill="#ffffff" data-fill-palette-color="accent"></path><path d="M66.9 57.5C64.3 57.5 62.2 55.4 62.2 52.8 62.2 51.9 62.9 51.2 63.8 51.2S65.4 51.9 65.4 52.8C65.4 53.6 66.1 54.3 66.9 54.3S68.4 53.6 68.4 52.8C68.4 51.9 69.1 51.2 70 51.2S71.6 51.9 71.6 52.8C71.6 55.3 69.5 57.5 66.9 57.5" fill="#ffffff" data-fill-palette-color="accent"></path><path d="M54.4 44.3C51.8 44.3 49.7 42.2 49.7 39.6 49.7 38.7 50.4 38 51.3 38S52.9 38.7 52.9 39.6C52.9 40.4 53.6 41.1 54.4 41.1S55.9 40.4 55.9 39.6C55.9 38.7 56.6 38 57.5 38S59.1 38.7 59.1 39.6C59.1 42.2 57 44.3 54.4 44.3" fill="#ffffff" data-fill-palette-color="accent"></path><path d="M48.1 43C45.5 43 43.4 40.9 43.4 38.3 43.4 37.4 44.1 36.7 45 36.7S46.6 37.4 46.6 38.3C46.6 39.1 47.3 39.8 48.1 39.8S49.6 39.1 49.6 38.3C49.6 37.4 50.3 36.7 51.2 36.7S52.8 37.4 52.8 38.3C52.9 40.9 50.8 43 48.1 43" fill="#ffffff" data-fill-palette-color="accent"></path><path d="M60.7 47.3C58.1 47.3 56 45.2 56 42.6 56 41.7 56.7 41 57.6 41S59.2 41.7 59.2 42.6C59.2 43.4 59.9 44.1 60.7 44.1S62.2 43.4 62.2 42.6C62.2 41.7 62.9 41 63.8 41S65.4 41.7 65.4 42.6C65.4 45.1 63.3 47.3 60.7 47.3" fill="#ffffff" data-fill-palette-color="accent"></path><path d="M33 37.1C29.6 37.1 26.9 34.4 26.9 31S29.6 24.9 33 24.9 39.1 27.6 39.1 31 36.4 37.1 33 37.1M33 28.2C31.4 28.2 30.1 29.5 30.1 31.1S31.4 34 33 34 35.9 32.7 35.9 31.1 34.6 28.2 33 28.2" fill="#ffffff" data-fill-palette-color="accent"></path><path d="M67 75.1C63.6 75.1 60.9 72.4 60.9 69S63.6 62.9 67 62.9 73.1 65.6 73.1 69 70.3 75.1 67 75.1M67 66.1C65.4 66.1 64.1 67.4 64.1 69S65.4 71.9 67 71.9 69.9 70.6 69.9 69 68.5 66.1 67 66.1" fill="#ffffff" data-fill-palette-color="accent"></path><path d="M33.2 27.9C32.6 27.9 32.1 27.6 31.8 27.1L27.6 20.2C27.3 19.7 27.3 19.1 27.6 18.6S28.4 17.8 29 17.8H37.5C38.1 17.8 38.6 18.1 38.9 18.6S39.2 19.7 38.9 20.2L34.7 27.1C34.3 27.6 33.8 27.9 33.2 27.9M31.9 21L33.2 23.2 34.5 21z" fill="#ffffff" data-fill-palette-color="accent"></path><path d="M71 82.2H62.5C61.9 82.2 61.4 81.9 61.1 81.4S60.8 80.3 61.1 79.8L65.3 72.9C65.6 72.4 66.1 72.1 66.7 72.1S67.8 72.4 68.1 72.9L72.3 79.8C72.6 80.3 72.6 80.9 72.3 81.4 72.2 81.9 71.6 82.2 71 82.2M65.5 79H68.2L66.9 76.8z" fill="#ffffff" data-fill-palette-color="accent"></path></svg></g></svg></g></svg></g></svg></g></svg></g><defs></defs></svg><rect width="395.52" height="134.61400177503455" fill="none" stroke="none" visibility="hidden"></rect></g></svg></g></svg>